<?xml version="1.0" standalone="no"?>
<!DOCTYPE svg PUBLIC "-//W3C//DTD SVG 20010904//EN"
 "http://www.w3.org/TR/2001/REC-SVG-20010904/DTD/svg10.dtd">
<svg version="1.0" xmlns="http://www.w3.org/2000/svg"
 width="800.000000pt" height="800.000000pt" viewBox="0 0 800.000000 800.000000"
 preserveAspectRatio="xMidYMid meet">
<metadata>
Created by potrace 1.11, written by Peter Selinger 2001-2013
</metadata>
<g transform="translate(0.000000,800.000000) scale(0.100000,-0.100000)"
fill="#000000" stroke="none">
<path d="M2830 7750 c-102 -18 -175 -98 -221 -243 -44 -138 -53 -221 -54 -484
l0 -251 -34 36 c-129 140 -250 358 -275 496 l-7 38 -26 -23 c-31 -29 -101
-136 -130 -199 -47 -101 -81 -235 -100 -392 -16 -125 -7 -591 12 -658 3 -8 7
-35 10 -60 9 -83 15 -100 90 -243 41 -78 99 -188 128 -245 45 -89 57 -105 92
-121 22 -11 119 -57 215 -104 449 -216 776 -370 787 -370 7 0 13 -11 13 -24 0
-12 -2 -23 -5 -23 -18 0 -422 189 -699 327 -267 133 -366 191 -390 232 -39 64
-125 225 -186 346 -33 66 -77 138 -98 160 -21 22 -51 57 -66 78 -21 28 -32 35
-41 27 -19 -16 -35 -90 -35 -162 l0 -63 -41 70 c-173 293 -282 594 -333 920
-17 106 -21 285 -10 451 7 105 6 106 -14 95 -58 -31 -163 -160 -229 -282 -63
-115 -124 -341 -137 -504 -3 -39 -8 -99 -11 -134 -5 -65 -17 -91 -40 -91 -40
0 -172 175 -304 403 -57 97 -65 107 -92 107 -45 0 -104 -68 -161 -187 -52
-108 -149 -394 -189 -552 l-23 -94 30 -56 c33 -63 147 -184 244 -258 65 -50
198 -143 205 -143 2 0 47 -26 102 -58 54 -32 182 -100 286 -151 103 -51 187
-97 187 -101 0 -42 -126 -34 -425 25 -16 3 -104 24 -194 46 -90 22 -166 38
-168 35 -3 -3 0 -13 8 -23 8 -10 18 -22 22 -28 4 -5 69 -102 143 -215 74 -113
149 -217 166 -232 43 -38 264 -149 383 -193 182 -68 451 -145 558 -161 46 -6
47 -7 31 -25 -26 -29 -118 -55 -229 -64 -62 -6 -288 -7 -363 -3 -23 2 -42 2
-42 1 0 -2 172 -126 308 -223 108 -76 165 -98 304 -115 28 -4 60 -9 71 -11 62
-12 216 -19 399 -19 114 0 204 -3 200 -7 -11 -11 -171 -55 -225 -62 -26 -4
-69 -11 -95 -15 -26 -5 -83 -12 -127 -16 -115 -9 -147 -13 -151 -18 -3 -2 63
-55 147 -118 178 -133 212 -148 349 -147 102 0 163 13 266 54 36 14 67 24 70
21 9 -9 -46 -92 -94 -141 -89 -90 -243 -158 -528 -231 -56 -14 -110 -27 -120
-30 -73 -15 -264 -54 -289 -58 -16 -3 -75 -13 -130 -22 -55 -9 -101 -18 -103
-20 -10 -10 24 -82 56 -117 82 -91 173 -103 417 -53 57 12 201 54 319 94 111
38 136 42 136 22 0 -28 -90 -85 -200 -128 -151 -58 -295 -105 -367 -119 -18
-4 -33 -10 -33 -15 0 -11 54 -51 120 -88 55 -30 56 -30 115 -16 134 31 353
112 539 199 55 25 101 44 103 42 7 -6 -58 -65 -119 -107 -92 -63 -320 -172
-440 -209 -21 -6 -38 -15 -38 -20 0 -14 61 -57 114 -80 64 -29 153 -26 221 8
56 28 225 144 282 194 47 42 133 121 192 176 25 24 53 48 64 53 16 9 15 4 -7
-36 -67 -119 -227 -293 -358 -389 -74 -54 -75 -65 -12 -86 82 -27 218 28 323
132 70 68 226 303 302 454 11 20 11 20 152 -12 78 -19 152 -33 164 -34 13 0
31 -13 44 -32 13 -18 30 -38 39 -45 46 -37 286 -115 384 -126 33 -4 83 -38
119 -82 7 -9 6 -44 -9 -187 -5 -49 10 -92 41 -118 17 -15 24 -11 30 16 2 11
11 34 20 53 13 25 16 48 12 93 -4 42 -2 61 7 64 25 10 64 -16 92 -60 16 -26
44 -53 62 -62 89 -42 112 26 37 111 -19 22 -35 43 -35 47 0 10 42 4 66 -10 36
-20 191 -25 227 -7 16 8 38 15 49 15 20 0 21 5 9 35 -5 11 -4 30 0 43 7 18 3
29 -24 58 -29 32 -38 35 -103 40 -42 3 -82 0 -100 -7 -16 -6 -74 -13 -129 -15
-55 -2 -114 -6 -131 -9 -26 -4 -44 4 -100 44 -81 57 -87 63 -104 116 -7 22
-28 72 -46 110 -33 72 -56 195 -35 195 5 0 13 -5 17 -11 7 -12 180 -5 267 12
29 5 63 12 77 14 51 9 93 25 110 40 16 14 20 12 58 -29 22 -24 43 -42 45 -40
5 5 65 -76 89 -121 24 -44 54 -115 68 -158 14 -45 45 -77 75 -77 18 0 75 49
75 64 0 3 -23 43 -51 90 -61 101 -77 176 -40 176 25 0 62 -18 118 -56 30 -20
46 -24 73 -20 19 4 43 6 53 7 14 0 16 6 12 32 -4 17 -11 37 -16 44 -6 7 -8 16
-5 21 6 10 59 9 92 -2 10 -3 26 -1 34 4 10 6 21 3 36 -11 l21 -20 -7 45 c-6
40 -4 45 14 51 20 5 19 7 -11 33 -31 26 -38 28 -110 26 -43 -1 -116 -10 -163
-19 -127 -25 -165 -23 -243 14 -69 33 -175 130 -207 190 -8 16 -46 54 -85 85
-38 31 -85 68 -103 83 -19 15 -59 44 -90 66 -32 22 -58 40 -59 41 -7 6 -14 83
-15 151 0 109 16 162 62 206 41 39 75 49 175 49 59 0 59 0 113 -57 32 -34 71
-91 98 -145 24 -48 46 -88 48 -88 8 0 -3 174 -13 208 l-10 32 31 -17 c18 -10
58 -43 90 -75 63 -61 70 -82 53 -156 l-7 -34 29 15 c41 22 92 76 100 105 14
58 7 96 -47 247 -16 44 -32 106 -35 139 -5 60 -17 84 -109 241 -50 83 -64 102
-53 72 5 -14 3 -16 -12 -8 -21 12 -93 36 -133 45 -37 8 -297 43 -373 50 -85 7
-221 18 -280 22 -27 1 -53 3 -58 3 -4 1 -6 4 -5 9 7 29 -88 330 -187 592 -76
200 -107 275 -223 540 -114 261 -205 532 -237 708 -3 15 -7 38 -10 52 -11 49
-34 176 -40 215 -3 22 -8 54 -11 70 -7 41 -12 78 -19 160 -3 39 -8 79 -10 90
-4 19 -16 218 -19 300 -1 35 -4 40 -31 45 -16 3 -46 3 -65 0z m1784 -4852 c24
-10 44 -44 33 -54 -3 -3 -19 2 -36 10 -16 9 -39 16 -51 16 -22 0 -23 1 -14 24
7 19 33 20 68 4z"/>
<path d="M6320 4133 c-36 -30 -94 -81 -130 -113 -36 -31 -135 -117 -220 -191
-85 -73 -168 -146 -185 -160 -16 -15 -104 -91 -195 -170 -91 -78 -167 -145
-170 -148 -3 -4 -52 -47 -110 -96 -58 -50 -161 -139 -230 -199 -69 -60 -152
-133 -185 -161 -33 -29 -170 -148 -305 -265 -135 -117 -274 -239 -310 -270
-36 -32 -103 -90 -150 -130 -47 -40 -87 -76 -90 -79 -3 -4 -80 -71 -172 -150
-93 -79 -168 -146 -168 -149 0 -3 25 -34 56 -69 l57 -64 111 6 c61 3 165 7
231 10 66 3 165 8 220 10 55 3 156 7 225 10 69 3 170 7 225 10 55 3 156 7 225
10 69 3 163 7 210 10 47 2 148 7 225 10 76 4 171 8 210 10 38 2 140 7 225 10
85 3 158 9 162 13 3 4 11 34 18 67 23 125 39 211 45 240 3 17 10 53 15 80 5
28 12 64 15 80 3 17 12 66 21 110 8 44 19 103 24 130 5 28 18 100 30 160 17
90 50 267 74 395 3 14 10 50 16 80 6 30 13 69 16 85 7 44 16 95 83 450 34 176
61 330 61 342 0 19 -95 143 -109 143 -3 0 -35 -26 -71 -57z"/>
<path d="M6649 3882 c-1 -6 -2 -15 -3 -19 -1 -5 -6 -28 -10 -53 -5 -25 -10
-54 -12 -65 -10 -52 -37 -193 -41 -215 -2 -14 -10 -56 -18 -95 -8 -38 -17 -86
-20 -105 -3 -19 -12 -69 -20 -110 -8 -41 -17 -91 -20 -110 -3 -19 -8 -42 -10
-50 -2 -8 -7 -31 -10 -50 -6 -35 -18 -99 -54 -290 -11 -58 -23 -118 -26 -135
-2 -16 -9 -54 -15 -84 -16 -87 -22 -82 88 -76 53 2 149 7 212 10 63 3 162 7
220 10 58 3 155 7 215 10 61 2 162 7 225 10 63 3 158 8 210 10 176 9 305 17
307 19 1 1 -10 16 -25 33 -15 16 -38 43 -52 59 -64 75 -146 170 -160 184 -26
29 -72 82 -200 230 -68 80 -127 147 -130 150 -3 3 -48 54 -100 114 -52 60
-115 132 -140 160 -25 28 -85 98 -135 156 -49 58 -92 107 -95 110 -3 3 -36 41
-74 85 -100 115 -106 121 -107 107z"/>
<path d="M7797 2314 c-2 -2 -206 -11 -412 -19 -44 -2 -132 -6 -195 -9 -63 -3
-167 -8 -230 -11 -214 -10 -315 -14 -465 -21 -82 -3 -151 -7 -153 -9 -1 -1 -4
-11 -6 -21 -2 -11 -7 -37 -11 -59 -4 -22 -9 -51 -11 -65 -3 -14 -16 -86 -30
-160 -15 -74 -28 -146 -31 -160 -11 -64 -24 -96 -45 -109 -23 -15 -35 -16
-263 -26 -82 -4 -175 -8 -205 -10 -30 -2 -67 -3 -81 -4 -21 -1 -28 -7 -33 -33
-4 -18 -31 -166 -62 -328 -30 -162 -67 -365 -84 -450 -16 -85 -32 -168 -35
-185 -2 -16 -7 -39 -9 -50 -5 -27 -37 -194 -42 -225 -3 -14 -13 -70 -24 -125
-10 -55 -21 -120 -25 -144 l-6 -44 113 99 c62 54 147 128 188 164 41 36 77 67
80 70 3 3 37 32 75 65 39 33 72 62 75 65 3 3 73 64 155 135 200 173 212 183
265 231 25 22 198 172 385 334 187 162 345 299 351 305 6 6 35 31 64 56 29 24
60 51 69 60 9 8 102 89 206 180 195 168 312 270 425 370 36 31 84 72 107 90
23 19 42 37 42 41 1 6 -135 7 -142 2z"/>
<path d="M5297 1613 c-1 0 -76 -4 -167 -8 -91 -3 -194 -8 -230 -10 -36 -2
-132 -6 -215 -10 -82 -3 -184 -8 -225 -10 -41 -2 -145 -7 -230 -10 -223 -10
-260 -12 -264 -16 -4 -3 112 -138 428 -499 12 -14 187 -216 390 -450 203 -234
375 -431 382 -439 12 -13 19 9 38 119 3 20 26 143 41 220 2 8 10 56 19 105 9
50 32 171 51 270 19 99 37 194 40 210 12 70 17 98 45 245 32 167 37 195 46
253 l7 37 -77 -2 c-43 -2 -78 -4 -79 -5z"/>
</g>
</svg>
